Coordinates
version=1
nRows=5
nColumns=40
inDegrees=yes

Units are S.I. units (second, meters, Newtons, ...)
Angles are in degrees.

endheader
time	pelvis_tilt	pelvis_list	pelvis_rotation	pelvis_tx	pelvis_ty	pelvis_tz	hip_flexion_r	hip_adduction_r	hip_rotation_r	knee_angle_r	knee_angle_r_beta	ankle_angle_r	subtalar_angle_r	mtp_angle_r	hip_flexion_l	hip_adduction_l	hip_rotation_l	knee_angle_l	knee_angle_l_beta	ankle_angle_l	subtalar_angle_l	mtp_angle_l	lumbar_extension	lumbar_bending	lumbar_rotation	arm_flex_r	arm_add_r	arm_rot_r	elbow_flex_r	pro_sup_r	wrist_flex_r	wrist_dev_r	arm_flex_l	arm_add_l	arm_rot_l	elbow_flex_l	pro_sup_l	wrist_flex_l	wrist_dev_l
     20.13000000	     -3.00341963	     -2.53129870	     -0.75428870	      0.84028208	      0.93513622	      0.42031067	     30.17690895	     -5.45598305	     -4.91432185	     67.18458777	     67.18458777	      5.09726223	    -15.17085713	      2.08953441	     11.71998439	     -1.38477384	     -7.96404032	     17.51193368	     17.51193368	     11.69791382	     -7.05572113	     -4.73066056	     -8.27800193	      4.09550141	      2.26743259	      3.20465309	    -11.93821975	     -5.65263613	     25.83912888	     45.38402205	      0.00000000	      0.00000000	     17.68283210	    -13.30442723	      0.08521195	     44.68974828	     44.99266569	      0.00000000	      0.00000000
     20.14178571	     -3.00832636	     -2.65422836	     -0.94666266	      0.83949381	      0.93550908	      0.42021733	     30.78198105	     -5.30539936	     -4.97820606	     64.78819592	     64.78819592	      5.18944613	    -14.89540840	      2.02895765	     10.94036961	     -1.47557755	     -8.12286555	     16.97036660	     16.97036660	     11.94359671	     -6.84106361	     -4.82408322	     -8.37210640	      4.33345762	      2.37201417	      1.43764063	    -12.17247219	     -5.70364798	     25.00301135	     45.42890029	      0.00000000	      0.00000000	     18.47016384	    -13.44519003	     -0.33748506	     45.98493758	     45.07205272	      0.00000000	      0.00000000
     20.15357143	     -3.01167359	     -2.76108351	     -1.12771884	      0.83871681	      0.93578724	      0.42012870	     31.19673775	     -5.17956862	     -5.10966434	     62.07239853	     62.07239853	      4.77578188	    -14.76202950	      0.78432128	     10.19415372	     -1.55298021	     -8.31743677	     16.46113484	     16.46113484	     11.99671939	     -6.71763023	     -5.31327346	     -8.53916258	      4.53636498	      1.95083675	     -0.01989197	    -12.22752764	     -6.41011864	     24.19071823	     45.59831020	      0.00000000	      0.00000000	     18.29058060	    -13.83939570	     -1.94883912	     49.20056762	     45.33843333	      0.00000000	      0.00000000
     20.16535714	     -3.03085272	     -2.87484685	     -1.30546867	      0.83802181	      0.93604837	      0.42007964	     31.48382146	     -4.99460192	     -5.22719109	     59.14469670	     59.14469670	      4.81645720	    -14.39858777	      0.92261645	      9.41656379	     -1.61552650	     -8.40732069	     15.87521658	     15.87521658	     12.24855657	     -6.55126722	     -5.33778255	     -8.59737763	      4.77731819	      2.10338143	     -1.64865740	    -12.45430339	     -6.55627565	     23.31997433	     45.65410754	      0.00000000	      0.00000000	     19.07841958	    -13.89310766	     -2.38766934	     50.37680072	     45.41502873	      0.00000000	      0.00000000
     20.17714286	     -3.07383290	     -3.01346725	     -1.47209284	      0.83729093	      0.93617034	      0.42007468	     31.65518334	     -4.79702077	     -5.45726060	     55.95674154	     55.95674154	      4.82004379	    -13.90448982	      1.10685896	      8.72499328	     -1.71304170	     -8.49782190	     15.38239060	     15.38239060	     12.47311350	     -6.41983747	     -5.40586326	     -8.66038022	      5.03442118	      2.12653426	     -3.23104150	    -12.64833400	     -6.76384229	     22.59876286	     45.70653393	      0.00000000	      0.00000000	     19.70468368	    -14.02192006	     -2.89095099	     51.70659292	     45.49326865	      0.00000000	      0.00000000
